HIERARCHY
ROOT pelvis
{
  OFFSET 0 100 0
  CHANNELS 6 Xposition Yposition Zposition Zrotation Xrotation Yrotation
  JOINT pelvis_right_femur
  {
    OFFSET -10.78128 -3.44521 -0.5502486
    CHANNELS 3 Zrotation Xrotation Yrotation
    JOINT right_femur_tibia
    {
      OFFSET -0.8047443 -44.0398 -0.1307829
      CHANNELS 3 Zrotation Xrotation Yrotation
      JOINT right_tibia_foot
      {
        OFFSET 3.006224 -47.83518 -5
        CHANNELS 3 Zrotation Xrotation Yrotation
        End Site
        {
          OFFSET 0 -5 15
        }
      }
    }
  }
  JOINT pelvis_left_femur
  {
    OFFSET 10.78128 -3.44521 -0.5502486
    CHANNELS 3 Zrotation Xrotation Yrotation
    JOINT left_femur_tibia
    {
      OFFSET 0.8047443 -44.0398 -0.1307829
      CHANNELS 3 Zrotation Xrotation Yrotation
      JOINT left_tibia_foot
      {
        OFFSET -4.370144 -48.10324 -4.275266
        CHANNELS 3 Zrotation Xrotation Yrotation
        End Site
        {
          OFFSET 0 -5 15
        }
      }
    }
  }
  JOINT pelvis_spine1
  {
    OFFSET 0 6.468898 -3.129235
    CHANNELS 3 Zrotation Xrotation Yrotation
    JOINT spine1
    {
      OFFSET 0 23.15396 4.99043
      CHANNELS 3 Zrotation Xrotation Yrotation
      JOINT spine2
      {
        OFFSET 0 20.79997 -5.064912
        CHANNELS 3 Zrotation Xrotation Yrotation
        JOINT neck
        {
          OFFSET 0 14.38658 9.616178
          CHANNELS 3 Zrotation Xrotation Yrotation
          End Site
          {
            OFFSET 0 20 0
          }
        }
      }
      JOINT right_manubrium
      {
        OFFSET -5.722621 16.35077 3.967754
        CHANNELS 3 Zrotation Xrotation Yrotation
        JOINT right_clavicle
        {
          OFFSET -13.16364 1.694482 -4.693211
          CHANNELS 3 Zrotation Xrotation Yrotation
          JOINT right_humerus
          {
            OFFSET -28.5034 -0.3100689 -2.792744
            CHANNELS 3 Zrotation Xrotation Yrotation
            JOINT right_radius
            {
              OFFSET -25.15693 0.02248979 -1.271978
              CHANNELS 3 Zrotation Xrotation Yrotation
              End Site
              {
                OFFSET -15 0 0
              }
            }
          }
        }
      }
      JOINT left_manubrium
      {
        OFFSET 5.722621 16.35077 3.967754
        CHANNELS 3 Zrotation Xrotation Yrotation
        JOINT left_clavicle
        {
          OFFSET 13.16364 1.694482 -4.693211
          CHANNELS 3 Zrotation Xrotation Yrotation
          JOINT left_humerus
          {
            OFFSET 29.39168 -1.063119 -2.237045
            CHANNELS 3 Zrotation Xrotation Yrotation
            JOINT left_radius
            {
              OFFSET 24.59957 -0.9528479 0.9047498
              CHANNELS 3 Zrotation Xrotation Yrotation
              End Site
              {
                OFFSET 15 -0 -0
              }
            }
          }
        }
      }
    }
  }
}
MOTION
Frames: 7
Frame Time: 0.0416666666667
0 103.5113 0 2.28927 0.02275191 0.1398287 2.432513 -16.23327 9.40033 -0 38.70511 -0 -5.211555 -18.76766 -1.531496 -8.842309 8.9769 -23.1859 -0 4.88927 -0 22.09701 -8.605399 29.79453 -2.324662 -2.353359 5.214232 2.47386 9.620204 -7.390297 1.285999 20.85051 7.212572 3.851149 -25.57669 9.430974 6.183297 -18.95243 11.15046 85.03852 36.27233 -17.96417 -0 0 15.01389 -9.132542 9.818025 4.855637 6.83416 -20.9956 -0.342007 -93.30592 21.99582 21.83521 0 0 -13.08393 13.0816 15.03326 -0.8579964
0.3235762 103.4571 1.558174 1.699288 0.9832643 0.2046781 3.573358 -18.57128 10.69793 -0 39.30132 -0 -5.167678 -18.50307 -2.051891 -8.600129 8.748352 -23.06947 -0 5.092034 -0 22.05668 -9.508261 30.22476 -2.19077 -2.459433 5.08694 2.640064 9.608808 -7.787211 1.308664 20.15353 7.421075 4.150758 -26.16935 9.476582 6.00755 -18.95709 11.11939 85.43642 35.66481 -18.89893 -0 0 15.19238 -8.87044 9.823945 4.445835 7.566127 -21.43644 -0.1708022 -92.96172 21.35186 20.98691 0 0 -14.68672 13.44682 14.55517 -1.538358
0.6273743 103.0119 3.843154 1.84331 -0.3731853 0.407809 3.1031 -18.79859 5.731101 -0 31.56104 -0 -6.717297 -12.17194 -0.4904892 -8.12573 10.32401 -20.68315 -0 7.034884 -0 18.13535 -12.4271 27.15901 -2.255466 -2.430469 5.016368 2.684867 9.522873 -7.68002 1.314361 20.5388 7.283629 3.903086 -26.09979 9.53239 6.053127 -18.87586 11.12794 85.43761 35.71145 -18.79517 -0 0 14.95592 -8.645595 9.679029 4.578023 7.086405 -21.11645 -0.3134815 -93.22229 22.23883 21.40658 0 0 -14.17778 12.75748 14.94233 -0.5913034
0.9182361 102.5122 6.533212 1.598875 -0.3937886 0.5828342 3.410108 -20.38521 4.036439 -0 27.75165 -0 -7.455123 -8.972742 0.06021624 -7.80201 10.80966 -19.27202 -0 8.283936 -0 16.51796 -13.97364 25.72431 -2.231944 -2.446245 4.93044 2.761137 9.498013 -7.787139 1.320477 20.4384 7.299908 3.91365 -26.25399 9.545612 6.011298 -18.82578 11.12775 85.588 35.49232 -19.1007 -0 0 14.88252 -8.518502 9.641492 4.529706 7.151791 -21.1586 -0.3304186 -93.15216 22.35382 21.208 0 0 -14.61341 12.5576 14.89232 -0.3946861
1.191003 101.8964 9.664567 1.366915 -0.4372411 0.7737658 3.6299 -21.93596 2.289726 -0 23.75363 -0 -8.191109 -5.801882 0.6248302 -7.476714 11.29811 -17.74511 -0 9.732748 -0 14.85643 -15.33616 24.11765 -2.225231 -2.423994 4.808829 2.841019 9.489749 -7.874437 1.316037 20.44034 7.269809 3.864895 -26.3026 9.509987 5.995135 -18.71315 11.14943 85.75088 35.27256 -19.38749 -0 0 14.64692 -8.473185 9.60751 4.613446 7.070816 -21.14295 -0.433644 -93.04161 22.64207 20.99987 0 0 -14.9935 12.09735 14.86377 0.1364733
1.449594 101.2081 13.21244 1.099072 -0.3427411 0.971587 3.91183 -23.47135 0.9467836 -0 20.2718 -0 -8.836502 -3.138415 1.113661 -7.17482 11.59576 -16.33315 -0 11.35566 -0 13.6237 -16.22014 22.65551 -2.207403 -2.400725 4.703878 2.90568 9.507367 -7.97578 1.308105 20.38062 7.261329 3.859174 -26.33643 9.453294 5.976782 -18.61123 11.17313 85.90833 35.05682 -19.67654 -0 0 14.43844 -8.501391 9.613058 4.694727 7.065577 -21.18751 -0.518609 -92.86932 22.75753 20.7109 0 0 -15.4486 11.7584 14.75457 0.5072229
1.694974 100.461 17.18709 0.8341667 -0.3031743 1.174213 4.176124 -24.74355 -0.3156748 -0 16.98051 -0 -9.473919 -0.7119135 1.593341 -6.868871 11.82474 -14.91842 -0 13.32777 -0 12.49905 -16.72152 21.1542 -2.193822 -2.359658 4.598523 2.960774 9.543617 -8.06688 1.293619 20.34581 7.241316 3.845114 -26.31065 9.367368 5.969823 -18.49265 11.20649 86.05825 34.85879 -19.93641 -0 0 14.18119 -8.601567 9.638221 4.831132 7.024723 -21.22898 -0.62993 -92.66178 22.86482 20.40275 0 0 -15.8763 11.37721 14.62258 0.9354052
